<?xml version="1.0" encoding="UTF-8"?>
<svg id="Layer_2" data-name="Layer 2" xmlns="http://www.w3.org/2000/svg" viewBox="0 0 64 64">
  <defs>
    <style>
      .cls-1 {
        fill: #fec92b;
      }

      .cls-1, .cls-2, .cls-3, .cls-4, .cls-5, .cls-6, .cls-7, .cls-8 {
        stroke-width: 0px;
      }

      .cls-2 {
        fill: #ff7a6e;
      }

      .cls-9 {
        opacity: 0;
      }

      .cls-3 {
        fill: #e62e49;
      }

      .cls-4 {
        fill: #476475;
      }

      .cls-5 {
        fill: #bdccd4;
      }

      .cls-6 {
        fill: #cef;
      }

      .cls-7 {
        fill: #fff;
      }

      .cls-8 {
        fill: #96dbff;
      }
    </style>
  </defs>
  <g id="Exports_2" data-name="Exports 2">
    <g>
      <g class="cls-9">
        <rect class="cls-7" width="64" height="64"/>
      </g>
      <g>
        <rect class="cls-4" x="5.6" y="39.67" width="50.34" height="7.44"/>
        <path class="cls-7" d="M54.95,42.7H7.8c-1.82,0-3.3-1.48-3.3-3.3v-21.51c0-1.82,1.48-3.3,3.3-3.3h19.26c14.19,0,26.94,8.7,32.12,21.91h0c1.17,2.98-1.03,6.21-4.23,6.21Z"/>
        <path class="cls-8" d="M45.04,19.65h-16.15c-.85,0-1.38.92-.95,1.65l3.76,6.53c.49.85,1.4,1.38,2.39,1.38h21.17c-2.73-3.88-6.22-7.12-10.21-9.56Z"/>
        <rect class="cls-5" x="4.5" y="46.01" width="55" height="3.41" rx="1.1" ry="1.1"/>
        <path class="cls-6" d="M59.49,37.99c0-.1,0-.2-.02-.31,0-.03,0-.07-.01-.1-.01-.09-.03-.17-.05-.26-7.17.74-15.44,1.09-24.24.91-2.7-.05-5.35-.15-7.92-.29-3.76-.21-7.37-.5-10.79-.88-3.87-.42-7.09-3.61-7.82-7.88,0-.03,0-.05-.01-.08-.69-4.04-.65-7.92-.03-11.2.23-1.2.53-2.31.91-3.33h-1.7c-1.82,0-3.3,1.48-3.3,3.3v21.51c0,1.82,1.48,3.3,3.3,3.3h47.14c2.37,0,4.19-1.77,4.5-3.9.01-.11.02-.22.03-.34,0-.05,0-.1,0-.15,0-.11,0-.22,0-.33Z"/>
        <path class="cls-2" d="M30.07,35.3c-.49-.85-1.4-1.38-2.39-1.38H4.5v5.48c0,1.82,1.48,3.3,3.3,3.3h26.53l-4.27-7.41Z"/>
        <path class="cls-3" d="M34.34,42.7l-2.63-4.56c-1.51-.05-3-.12-4.46-.2-3.76-.21-7.37-.5-10.79-.88-2.22-.24-4.23-1.4-5.67-3.15h-6.28v5.48c0,1.82,1.48,3.3,3.3,3.3h26.53Z"/>
        <path class="cls-1" d="M51.38,37.72c0,1.79-.34,2.06-3.67,2.06s-3.67-.27-3.67-2.06.34-2.06,3.67-2.06,3.67.27,3.67,2.06Z"/>
      </g>
    </g>
  </g>
</svg>