<svg xmlns="http://www.w3.org/2000/svg" viewBox="0 0 64 64"><defs><style>.cls-1{fill:#1a1a1a;opacity:0;}.cls-2{fill:#7b97a6;}.cls-3{fill:#d3dee3;}.cls-4{fill:#fff;}.cls-5{fill:#37b9ff;}.cls-6{fill:#96dbff;}</style></defs><title>UFO</title><g id="Layer_2" data-name="Layer 2"><g id="Finals"><rect class="cls-1" width="64" height="64"/><path class="cls-2" d="M59.5,36.14c0,5.16-16.36,9.8-27.5,9.8S4.5,41.3,4.5,36.14c0-2.31,19.21,1.43,27.5,1.43S59.5,33.83,59.5,36.14Z"/><ellipse class="cls-3" cx="32" cy="36.14" rx="27.5" ry="7.66"/><path class="cls-4" d="M58,35.07a3.14,3.14,0,0,0-1.2-2.26c-4-2.31-12.06-4-21.6-4.28L32,30.46l9.23,10.38a2.84,2.84,0,0,0,2.53.92C52.19,40.52,58,38,58,35.07Z"/><path class="cls-5" d="M32,18.06A14.16,14.16,0,0,0,17.84,32.22c0,2.18,6.34,3.94,14.16,3.94s14.16-1.76,14.16-3.94A14.16,14.16,0,0,0,32,18.06Z"/><path class="cls-6" d="M32,18.06a14.06,14.06,0,0,0-8.2,2.62c-.05.09-.09.18-.13.27C21.83,25.14,25,30.58,30.76,33.1s11.91,1.18,13.74-3a6.34,6.34,0,0,0,.43-3.63A14.14,14.14,0,0,0,32,18.06Z"/><ellipse class="cls-4" cx="39.12" cy="24.76" rx="2.33" ry="3.7" transform="translate(-6.05 34.92) rotate(-45)"/></g></g></svg>